<?xml version="1.0" encoding="UTF-8"?>
<svg xmlns="http://www.w3.org/2000/svg" xmlns:xlink="http://www.w3.org/1999/xlink" width="1000pt" height="1000pt" viewBox="0 0 1000 1000" version="1.1">
<defs>
<filter id="alpha" filterUnits="objectBoundingBox" x="0%" y="0%" width="100%" height="100%">
  <feColorMatrix type="matrix" in="SourceGraphic" values="0 0 0 0 1 0 0 0 0 1 0 0 0 0 1 0 0 0 1 0"/>
</filter>
<mask id="mask0">
  <g filter="url(#alpha)">
<rect x="0" y="0" width="1000" height="1000" style="fill:rgb(0%,0%,0%);fill-opacity:0.101961;stroke:none;"/>
  </g>
</mask>
<clipPath id="clip1">
  <rect width="1000" height="1000"/>
</clipPath>
<g id="surface6" clip-path="url(#clip1)">
<path style=" stroke:none;fill-rule:nonzero;fill:rgb(0%,0%,0%);fill-opacity:1;" d="M 477.871094 665.160156 C 420.890625 684.320312 363.960938 681.78125 322.480469 662.441406 L 308.589844 679.988281 L 448.390625 760.710938 L 487.761719 661.441406 C 484.480469 662.699219 481.261719 664.03125 477.871094 665.160156 Z M 477.871094 665.160156 "/>
</g>
<mask id="mask1">
  <g filter="url(#alpha)">
<rect x="0" y="0" width="1000" height="1000" style="fill:rgb(0%,0%,0%);fill-opacity:0.101961;stroke:none;"/>
  </g>
</mask>
<clipPath id="clip2">
  <rect width="1000" height="1000"/>
</clipPath>
<g id="surface9" clip-path="url(#clip2)">
<path style=" stroke:none;fill-rule:nonzero;fill:rgb(0%,0%,0%);fill-opacity:1;" d="M 765.53125 132.550781 C 731.210938 188.011719 687.679688 231.53125 642.730469 259.398438 L 763.21875 328.96875 C 768.929688 315.929688 772.25 301.929688 772.859375 287.628906 L 779.230469 139.691406 C 779.589844 131.328125 778.070312 123.21875 775.28125 115.628906 C 772.121094 121.28125 769 126.949219 765.53125 132.550781 Z M 765.53125 132.550781 "/>
</g>
<mask id="mask2">
  <g filter="url(#alpha)">
<rect x="0" y="0" width="1000" height="1000" style="fill:rgb(0%,0%,0%);fill-opacity:0.101961;stroke:none;"/>
  </g>
</mask>
<clipPath id="clip3">
  <rect width="1000" height="1000"/>
</clipPath>
<g id="surface12" clip-path="url(#clip3)">
<path style=" stroke:none;fill-rule:nonzero;fill:rgb(0%,0%,0%);fill-opacity:1;" d="M 651.941406 523.269531 L 533.308594 709.820312 L 541.359375 714.460938 L 611.078125 768.269531 L 669.421875 684.660156 C 675.539062 671.738281 677.398438 657.199219 674.730469 643.148438 Z M 651.941406 523.269531 "/>
</g>
<mask id="mask3">
  <g filter="url(#alpha)">
<rect x="0" y="0" width="1000" height="1000" style="fill:rgb(0%,0%,0%);fill-opacity:0.101961;stroke:none;"/>
  </g>
</mask>
<clipPath id="clip4">
  <rect width="1000" height="1000"/>
</clipPath>
<g id="surface15" clip-path="url(#clip4)">
<path style=" stroke:none;fill-rule:nonzero;fill:rgb(0%,0%,0%);fill-opacity:1;" d="M 248.738281 519.261719 C 244.140625 516.609375 240.058594 513.320312 236.230469 509.738281 L 220.699219 542.898438 L 302.160156 576.371094 L 312.851562 582.539062 L 353.21875 505.460938 C 316.519531 529.449219 277.980469 536.058594 248.738281 519.261719 Z M 248.738281 519.261719 "/>
</g>
<mask id="mask4">
  <g filter="url(#alpha)">
<rect x="0" y="0" width="1000" height="1000" style="fill:rgb(0%,0%,0%);fill-opacity:0.101961;stroke:none;"/>
  </g>
</mask>
<clipPath id="clip5">
  <rect width="1000" height="1000"/>
</clipPath>
<g id="surface18" clip-path="url(#clip5)">
<path style=" stroke:none;fill-rule:nonzero;fill:rgb(0%,0%,0%);fill-opacity:1;" d="M 345.328125 556.601562 C 340.359375 553.941406 335.679688 550.871094 331.148438 547.609375 L 312.851562 582.539062 L 533.308594 709.820312 L 651.941406 523.269531 L 757.5 340.441406 C 759.640625 336.730469 761.519531 332.878906 763.230469 328.96875 L 737.488281 314.109375 C 625.5 506.738281 453.710938 614.621094 345.328125 556.601562 Z M 345.328125 556.601562 "/>
</g>
</defs>
<g id="surface1">
<path style=" stroke:none;fill-rule:nonzero;fill:rgb(95.686275%,90.196078%,78.431373%);fill-opacity:1;" d="M 382.828125 689.390625 C 363.378906 683.050781 341.300781 688.859375 327.511719 703.980469 C 313.109375 719.769531 310 740.339844 316.011719 757.941406 C 318.871094 766.300781 318.328125 775.339844 313.71875 782.871094 C 313.46875 783.28125 313.21875 783.699219 312.96875 784.128906 C 307.601562 793.429688 305.171875 803.21875 305.558594 811.550781 C 306.160156 824.300781 303.609375 837 296.5 847.601562 L 295.75 848.71875 C 288.109375 860.328125 279.078125 871.128906 273.328125 883.820312 C 267.480469 896.460938 262.28125 909.46875 259.800781 924.058594 L 261.421875 924.988281 C 272.808594 915.550781 281.480469 904.539062 289.5 893.148438 C 297.621094 881.820312 302.460938 868.601562 308.691406 856.179688 L 309.289062 854.960938 C 314.921875 843.5 324.628906 834.941406 335.980469 829.078125 C 343.390625 825.261719 350.648438 818.261719 356.019531 808.949219 C 356.230469 808.578125 356.441406 808.21875 356.640625 807.851562 C 360.898438 800.109375 368.398438 794.929688 377.070312 793.238281 C 391.761719 790.378906 405.179688 781.441406 413.261719 767.449219 C 429.980469 738.5 416.609375 700.398438 382.828125 689.390625 Z M 382.828125 689.390625 "/>
<path style=" stroke:none;fill-rule:nonzero;fill:rgb(40%,40%,40%);fill-opacity:1;" d="M 512.890625 598.121094 L 417.160156 542.851562 L 308.601562 679.988281 L 448.398438 760.710938 Z M 512.890625 598.121094 "/>
<use xlink:href="#surface6" mask="url(#mask0)"/>
<path style=" stroke:none;fill-rule:nonzero;fill:rgb(88.235294%,36.078431%,39.215686%);fill-opacity:1;" d="M 779.238281 139.691406 C 780.429688 112.03125 763.109375 86.320312 735.558594 77.660156 C 717.519531 71.988281 697.808594 75.710938 681.851562 85.859375 L 558.890625 164.089844 C 546.808594 171.769531 536.351562 181.648438 527.910156 193.109375 L 763.230469 328.96875 C 768.941406 315.929688 772.261719 301.929688 772.871094 287.628906 Z M 779.238281 139.691406 "/>
<use xlink:href="#surface9" mask="url(#mask1)"/>
<path style=" stroke:none;fill-rule:nonzero;fill:rgb(95.686275%,49.411765%,37.254902%);fill-opacity:1;" d="M 651.941406 523.269531 L 533.308594 709.820312 L 541.359375 714.460938 L 611.078125 768.269531 L 669.421875 684.660156 C 675.539062 671.738281 677.398438 657.199219 674.730469 643.148438 Z M 651.941406 523.269531 "/>
<use xlink:href="#surface12" mask="url(#mask2)"/>
<path style=" stroke:none;fill-rule:nonzero;fill:rgb(95.686275%,49.411765%,37.254902%);fill-opacity:1;" d="M 263.949219 450.570312 L 220.699219 542.898438 L 302.160156 576.371094 L 312.851562 582.539062 L 417.191406 383.351562 L 297.238281 425.21875 C 283.730469 429.929688 272.078125 438.808594 263.949219 450.570312 Z M 263.949219 450.570312 "/>
<use xlink:href="#surface15" mask="url(#mask3)"/>
<path style=" stroke:none;fill-rule:nonzero;fill:rgb(87.843137%,87.843137%,87.843137%);fill-opacity:1;" d="M 520.839844 203.808594 L 417.191406 383.351562 L 312.851562 582.539062 L 533.308594 709.820312 L 651.941406 523.269531 L 757.5 340.441406 C 759.640625 336.730469 761.519531 332.878906 763.230469 328.96875 L 527.910156 193.109375 C 525.378906 196.539062 522.988281 200.089844 520.839844 203.808594 Z M 520.839844 203.808594 "/>
<use xlink:href="#surface18" mask="url(#mask4)"/>
<path style=" stroke:none;fill-rule:nonzero;fill:rgb(62.745098%,78.431373%,84.313725%);fill-opacity:1;" d="M 604.796875 328.378906 C 576.617188 312.109375 540.585938 321.765625 524.3125 349.945312 C 508.042969 378.125 517.699219 414.160156 545.878906 430.429688 C 574.058594 446.699219 610.09375 437.046875 626.363281 408.863281 C 642.632812 380.683594 632.980469 344.652344 604.796875 328.378906 Z M 604.796875 328.378906 "/>
<path style="fill:none;stroke-width:3;stroke-linecap:round;stroke-linejoin:miter;stroke:rgb(100%,100%,100%);stroke-opacity:1;stroke-miterlimit:10;" d="M 47.112891 35.016016 L 46.725 35.687109 " transform="matrix(10,0,0,10,0,0)"/>
<path style="fill:none;stroke-width:3;stroke-linecap:round;stroke-linejoin:miter;stroke:rgb(100%,100%,100%);stroke-opacity:1;stroke-miterlimit:10;" d="M 52.164844 26.267969 L 49.473047 30.928906 " transform="matrix(10,0,0,10,0,0)"/>
</g>
</svg>
