<?xml version="1.0" encoding="UTF-8"?>
<svg xmlns="http://www.w3.org/2000/svg" xmlns:xlink="http://www.w3.org/1999/xlink" width="1000pt" height="1000pt" viewBox="0 0 1000 1000" version="1.1">
<g id="surface1">
<path style="fill:none;stroke-width:3;stroke-linecap:round;stroke-linejoin:round;stroke:rgb(76.470588%,21.568627%,21.176471%);stroke-opacity:1;stroke-miterlimit:10;" d="M 48.33125 72.548047 C 45.996875 76.589844 38.339844 80.998828 34.855469 78.9875 C 31.369922 76.974609 31.360547 68.138672 33.693359 64.096875 C 36.026172 60.054688 41.195312 58.669922 45.2375 61.003906 C 49.279297 63.337891 50.664844 68.505859 48.33125 72.548047 Z M 48.33125 72.548047 " transform="matrix(10,0,0,10,0,0)"/>
<path style="fill:none;stroke-width:3;stroke-linecap:round;stroke-linejoin:round;stroke:rgb(76.470588%,21.568627%,21.176471%);stroke-opacity:1;stroke-miterlimit:10;" d="M 34.855469 78.9875 L 28.496875 90 " transform="matrix(10,0,0,10,0,0)"/>
<path style="fill:none;stroke-width:3;stroke-linecap:round;stroke-linejoin:round;stroke:rgb(76.470588%,21.568627%,21.176471%);stroke-opacity:1;stroke-miterlimit:10;" d="M 37.288281 84.109375 L 34.792969 88.430469 " transform="matrix(10,0,0,10,0,0)"/>
<path style="fill:none;stroke-width:3;stroke-linecap:round;stroke-linejoin:round;stroke:rgb(76.470588%,21.568627%,21.176471%);stroke-opacity:1;stroke-miterlimit:10;" d="M 29.203125 79.441406 L 26.708203 83.7625 " transform="matrix(10,0,0,10,0,0)"/>
<path style="fill:none;stroke-width:3;stroke-linecap:round;stroke-linejoin:round;stroke:rgb(19.607843%,19.607843%,19.607843%);stroke-opacity:1;stroke-miterlimit:10;" d="M 50.105469 76.912109 C 51.90625 76.765625 53.607422 75.766797 54.579297 74.083984 C 54.839844 73.632031 55.026172 73.158203 55.152344 72.675781 L 62.314453 76.810547 L 67.384766 68.029297 L 64.740234 54.108203 L 76.515625 33.710156 L 77.261719 16.373828 C 77.360547 14.098828 76.183594 11.958203 74.211719 10.819531 C 72.240234 9.679688 69.798047 9.733203 67.876172 10.955078 L 53.236328 20.26875 L 41.646484 40.342578 L 27.801953 45.175 L 22.73125 53.957031 L 29.892578 58.091797 C 29.539062 58.442578 29.220703 58.839844 28.960156 59.291797 C 28.005859 60.945312 27.974609 62.876953 28.707031 64.492188 " transform="matrix(10,0,0,10,0,0)"/>
<path style="fill:none;stroke-width:3;stroke-linecap:round;stroke-linejoin:round;stroke:rgb(19.607843%,19.607843%,19.607843%);stroke-opacity:1;stroke-miterlimit:10;" d="M 59.253906 23.744141 L 70.39375 30.175 " transform="matrix(10,0,0,10,0,0)"/>
</g>
</svg>
